# xmcd CD database file
# Copyright (C) 1993-1998 Ti Kan
# 
# Track frame offsets:
#     183
#     12575
#     23623
#     35030
#     45020
#     55933
#     68598
#     81763
#     92080
#     106818
#     118568
#     129815
#     142943
#     152718
#     167343
#     175913
#     187463
#     199348
#     210768
# 
# Disc length: 2949 seconds
# 
# Revision: 1
# Processed by: cddbd v1.4b41PL1 Copyright (c) Steve Scherf et al.
# Submitted via: DiscPlay 4.0.4
# 
DISCID=ee0b8313
DTITLE=Pickett, Dan and Tarheel Slim - Dan Pickett and Tarheel Slim
DYEAR=1900
DGENRE=
TTITLE0=Baby How Long
TTITLE1=You Got To Do Better
TTITLE2=Ride To A Funeral In A V-8
TTITLE3=Decoration Day
TTITLE4=Drivin' That Thing
TTITLE5=That's Grieving Me
TTITLE6=99 1/2 Won't Do
TTITLE7=Baby Don't You Want To Go
TTITLE8=Chicago Blues
TTITLE9=Something's Gone Wrong
TTITLE10=Early One Morning
TTITLE11=Lemon Man
TTITLE12=Number Writer
TTITLE13=Drivin' That Thing #2
TTITLE14=I Can Shake It
TTITLE15=Somebody Changed The Lock
TTITLE16=You're A Little Too Slow
TTITLE17=I Have Found No Friend - 1
TTITLE18=Get On The Road To Glory - 1
EXTD=
EXTT0=
EXTT1=
EXTT2=
EXTT3=
EXTT4=
EXTT5=
EXTT6=
EXTT7=
EXTT8=
EXTT9=
EXTT10=
EXTT11=
EXTT12=
EXTT13=
EXTT14=
EXTT15=
EXTT16=
EXTT17=
EXTT18=
PLAYORDER=
